STARTFONT 2.1
COMMENT Copyright (C) 1990-1991 EWT Consulting
COMMENT Portions Copyright (C) 1994-1995 Cronyx Ltd.
COMMENT Changes Copyright (C) 1996-1997 by Andrey A. Chernov, Moscow, Russia.
COMMENT Modified by Serge Vakulenko, <vak@cronyx.ru>
COMMENT This software may be used, modified, copied, distributed, and sold,
COMMENT in both source and binary form provided that the copyright
COMMENT and these terms are retained. Under no circumstances is the author
COMMENT responsible for the proper functioning of this software, nor does
COMMENT the author assume any responsibility for damages incurred with its use.
COMMENT $XFree86: xc/fonts/bdf/cyrillic/crox5ho.bdf,v 3.2.4.1 1998/02/01 16:04:03 robin Exp $
FONT -Cronyx-Helvetica-Medium-O-Normal--25-180-100-100-P-98-KOI8-R
SIZE 18 96 96
FONTBOUNDINGBOX 32 26 -1 -6
STARTPROPERTIES 20
DEFAULT_CHAR 32
FONT_ASCENT 23
FONT_DESCENT 6
SPACING "P"
FONTNAME_REGISTRY ""
FOUNDRY "Cronyx"
FAMILY_NAME "Helvetica"
WEIGHT_NAME "Medium"
SLANT "O"
SETWIDTH_NAME "Normal"
ADD_STYLE_NAME ""
AVERAGE_WIDTH 98
CHARSET_REGISTRY "KOI8"
CHARSET_ENCODING "R"
PIXEL_SIZE 25
POINT_SIZE 180
RESOLUTION_X 100
RESOLUTION_Y 100
COPYRIGHT "Copyright (C) 1990, 1991 EWT Consulting, Portions Copyright (C) 1994 Cronyx Ltd., Portions Copyright (C) 1996-1997 by Andrey A. Chernov, Moscow, Russia."
_XMBDFED_INFO "Edited with xmbdfed 2.7."
ENDPROPERTIES
CHARS 165
STARTCHAR space
ENCODING 32
SWIDTH 250 0
DWIDTH 6 0
BBX 0 0 -1 0
BITMAP
ENDCHAR
STARTCHAR exclam
ENCODING 33
SWIDTH 250 0
DWIDTH 6 0
BBX 7 17 1 0
BITMAP
06
06
06
0C
0C
0C
18
18
18
30
30
30
60
00
00
C0
C0
ENDCHAR
STARTCHAR quotedbl
ENCODING 34
SWIDTH 333 0
DWIDTH 8 0
BBX 8 6 0 11
BITMAP
33
66
66
66
CC
CC
ENDCHAR
STARTCHAR numbersign
ENCODING 35
SWIDTH 541 0
DWIDTH 13 0
BBX 16 17 0 0
BITMAP
0066
0066
0066
0198
0198
07FE
0FFC
0330
0660
0CC0
3FF0
3FF0
1980
1980
3300
6600
6600
ENDCHAR
STARTCHAR dollar
ENCODING 36
SWIDTH 541 0
DWIDTH 13 0
BBX 17 20 0 -2
BITMAP
001000
007C00
01FF00
032700
062300
062000
0C4000
064000
07F000
03F800
009800
008C00
011800
011800
311800
726000
3FE000
0F8000
040000
040000
ENDCHAR
STARTCHAR percent
ENCODING 37
SWIDTH 916 0
DWIDTH 22 0
BBX 25 17 0 0
BITMAP
01E01800
03F01800
07383000
0C30C000
0C30C000
0E718000
0FC60000
07860000
000C0000
0030F000
0031F800
00639C00
01861800
01861800
03073800
0C07E000
0C03C000
ENDCHAR
STARTCHAR ampersand
ENCODING 38
SWIDTH 666 0
DWIDTH 16 0
BBX 19 17 0 0
BITMAP
007000
00F800
018C00
031800
031800
01B000
03E000
01C000
07E000
1CC600
18E600
307600
607800
603800
307800
7FF800
1F1C00
ENDCHAR
STARTCHAR quoteright
ENCODING 39
SWIDTH 166 0
DWIDTH 4 0
BBX 4 6 0 11
BITMAP
30
60
60
60
C0
C0
ENDCHAR
STARTCHAR parenleft
ENCODING 40
SWIDTH 333 0
DWIDTH 8 0
BBX 12 22 1 -5
BITMAP
0030
0060
00C0
0180
0180
0300
0600
0600
0C00
0C00
0C00
1800
1800
1800
3000
3000
1800
3000
3000
1800
3000
1800
ENDCHAR
STARTCHAR parenright
ENCODING 41
SWIDTH 333 0
DWIDTH 8 0
BBX 12 22 0 -5
BITMAP
0180
00C0
0180
00C0
00C0
0180
00C0
00C0
0180
0180
0180
0300
0300
0300
0600
0600
0C00
1800
1800
3000
6000
C000
ENDCHAR
STARTCHAR asterisk
ENCODING 42
SWIDTH 416 0
DWIDTH 10 0
BBX 9 7 1 10
BITMAP
0400
0400
6B00
3E00
1C00
6C00
4400
ENDCHAR
STARTCHAR plus
ENCODING 43
SWIDTH 583 0
DWIDTH 14 0
BBX 13 10 1 4
BITMAP
0180
0180
0300
0300
3FF0
7FE0
0600
0600
0C00
0C00
ENDCHAR
STARTCHAR comma
ENCODING 44
SWIDTH 250 0
DWIDTH 6 0
BBX 3 4 1 -2
BITMAP
60
60
40
80
ENDCHAR
STARTCHAR minus
ENCODING 45
SWIDTH 333 0
DWIDTH 8 0
BBX 6 2 0 5
BITMAP
FC
FC
ENDCHAR
STARTCHAR period
ENCODING 46
SWIDTH 250 0
DWIDTH 6 0
BBX 2 2 1 0
BITMAP
C0
C0
ENDCHAR
STARTCHAR slash
ENCODING 47
SWIDTH 291 0
DWIDTH 7 0
BBX 12 17 -1 0
BITMAP
0030
0030
0060
00C0
00C0
0180
0300
0300
0600
0C00
0C00
1800
3000
3000
6000
C000
C000
ENDCHAR
STARTCHAR zero
ENCODING 48
SWIDTH 541 0
DWIDTH 13 0
BBX 16 17 0 0
BITMAP
0070
01FC
038E
060C
0C06
0C06
180C
180C
180C
3018
3018
3018
6030
3060
38E0
3F80
0E00
ENDCHAR
STARTCHAR one
ENCODING 49
SWIDTH 541 0
DWIDTH 13 0
BBX 11 17 1 0
BITMAP
0060
00E0
07E0
0FC0
00C0
00C0
0180
0180
0180
0300
0300
0300
0600
0600
0600
0C00
0C00
ENDCHAR
STARTCHAR two
ENCODING 50
SWIDTH 541 0
DWIDTH 13 0
BBX 16 17 0 0
BITMAP
00F8
03FE
038E
0E0E
0C06
0006
001C
0038
00F8
03C0
0700
0E00
3800
3000
7000
FFE0
FFE0
ENDCHAR
STARTCHAR three
ENCODING 51
SWIDTH 541 0
DWIDTH 13 0
BBX 16 17 0 0
BITMAP
00F8
03FE
038E
0E0E
0C06
000C
0038
01F0
01F0
0070
0038
3018
6030
7070
38E0
7FC0
1F00
ENDCHAR
STARTCHAR four
ENCODING 52
SWIDTH 541 0
DWIDTH 13 0
BBX 16 17 0 0
BITMAP
000E
001E
003E
006C
00EC
01CC
0318
0718
0E18
1830
3830
3FF8
7FF0
0060
0060
00C0
00C0
ENDCHAR
STARTCHAR five
ENCODING 53
SWIDTH 541 0
DWIDTH 13 0
BBX 16 17 0 0
BITMAP
01FF
01FF
0180
0600
0600
0600
1FE0
1FF8
1838
0038
0018
0018
0030
6070
70E0
7FC0
1F00
ENDCHAR
STARTCHAR six
ENCODING 54
SWIDTH 541 0
DWIDTH 13 0
BBX 16 17 0 0
BITMAP
0078
01FE
0386
0606
0C00
0C00
19E0
1FF8
1E38
3838
3018
3018
6030
7070
38E0
7FC0
1F00
ENDCHAR
STARTCHAR seven
ENCODING 55
SWIDTH 541 0
DWIDTH 13 0
BBX 16 17 0 0
BITMAP
07FF
07FF
0006
001C
0018
0038
0060
00E0
00C0
0380
0300
0300
0E00
0C00
0C00
1800
1800
ENDCHAR
STARTCHAR eight
ENCODING 56
SWIDTH 541 0
DWIDTH 13 0
BBX 16 17 0 0
BITMAP
0070
01FC
018C
060C
060C
060C
0630
07F0
07F0
1C70
3838
3018
6030
7070
38E0
7FC0
1F00
ENDCHAR
STARTCHAR nine
ENCODING 57
SWIDTH 541 0
DWIDTH 13 0
BBX 16 17 0 0
BITMAP
00F8
03FE
038E
0E0E
0C06
0C06
180C
1C1C
0E3C
1FF8
07D8
0018
0030
6060
30E0
7F80
1E00
ENDCHAR
STARTCHAR colon
ENCODING 58
SWIDTH 250 0
DWIDTH 6 0
BBX 6 12 1 0
BITMAP
0C
18
00
00
00
00
00
00
00
00
C0
C0
ENDCHAR
STARTCHAR semicolon
ENCODING 59
SWIDTH 250 0
DWIDTH 6 0
BBX 6 14 1 -2
BITMAP
0C
0C
00
00
00
00
00
00
00
00
60
60
40
80
ENDCHAR
STARTCHAR less
ENCODING 60
SWIDTH 583 0
DWIDTH 14 0
BBX 17 16 0 0
BITMAP
000080
000380
000E00
003800
007000
038000
070000
1C0000
380000
0E0000
070000
038000
01C000
007000
007000
001000
ENDCHAR
STARTCHAR equal
ENCODING 61
SWIDTH 583 0
DWIDTH 14 0
BBX 14 8 0 5
BITMAP
3FFC
3FFC
0000
0000
0000
0000
FFF0
FFF0
ENDCHAR
STARTCHAR greater
ENCODING 62
SWIDTH 583 0
DWIDTH 14 0
BBX 17 16 0 0
BITMAP
040000
070000
070000
01C000
00E000
007000
003800
000E00
001C00
007000
00E000
070000
0E0000
380000
E00000
800000
ENDCHAR
STARTCHAR question
ENCODING 63
SWIDTH 500 0
DWIDTH 12 0
BBX 15 17 0 0
BITMAP
00F0
03FC
030C
0C0C
0C0C
001C
0070
00E0
00C0
0300
0300
0300
0000
0000
0000
0C00
0C00
ENDCHAR
STARTCHAR at
ENCODING 64
SWIDTH 1000 0
DWIDTH 24 0
BBX 29 21 0 -4
BITMAP
0001F800
000FFC00
00380700
00600180
01800180
0103E080
030FECC0
04387880
0C3030C0
0C6030C0
18C0C180
18C0C100
18C18300
10C30C00
18FF9C00
0838F000
18000000
0C000000
07018000
03FE0000
00F80000
ENDCHAR
STARTCHAR A
ENCODING 65
SWIDTH 625 0
DWIDTH 15 0
BBX 20 17 -1 0
BITMAP
001C00
001C00
003E00
006C00
006C00
00EE00
018C00
018C00
038E00
060C00
0E0E00
0FFE00
1FFC00
380E00
300600
E00E00
E00E00
ENDCHAR
STARTCHAR B
ENCODING 66
SWIDTH 666 0
DWIDTH 16 0
BBX 18 17 1 0
BITMAP
07FC00
07FF00
060300
0C0300
0C0300
0C0300
180E00
1FFC00
1FFE00
300C00
300600
300600
600C00
600C00
601800
FFF000
FFC000
ENDCHAR
STARTCHAR C
ENCODING 67
SWIDTH 708 0
DWIDTH 17 0
BBX 21 17 0 0
BITMAP
003F80
00FFE0
01E0F0
070060
060030
0E0030
180000
180000
180000
300000
300000
3800C0
300180
380300
1E0F00
1FFC00
07F000
ENDCHAR
STARTCHAR D
ENCODING 68
SWIDTH 708 0
DWIDTH 17 0
BBX 19 17 1 0
BITMAP
07FC00
07FF00
060780
0C0380
0C0180
0C01C0
180180
180180
180180
300300
300300
300700
600C00
601C00
607800
FFE000
FF8000
ENDCHAR
STARTCHAR E
ENCODING 69
SWIDTH 666 0
DWIDTH 16 0
BBX 18 17 1 0
BITMAP
07FFC0
07FFC0
060000
0C0000
0C0000
0C0000
180000
1FFC00
1FFC00
300000
300000
300000
600000
600000
600000
FFF800
FFF800
ENDCHAR
STARTCHAR F
ENCODING 70
SWIDTH 625 0
DWIDTH 15 0
BBX 18 17 1 0
BITMAP
07FFC0
07FFC0
060000
0C0000
0C0000
0C0000
180000
1FFC00
1FFC00
300000
300000
300000
600000
600000
600000
C00000
C00000
ENDCHAR
STARTCHAR G
ENCODING 71
SWIDTH 750 0
DWIDTH 18 0
BBX 21 17 0 0
BITMAP
003F80
00FFE0
01E0F0
070060
060030
0E0030
180000
180000
180000
301FC0
301FC0
3800C0
300180
380380
1E0F80
1FFF00
07F100
ENDCHAR
STARTCHAR H
ENCODING 72
SWIDTH 708 0
DWIDTH 17 0
BBX 18 17 1 0
BITMAP
0600C0
0600C0
0600C0
0C0180
0C0180
0C0180
180300
1FFF00
1FFF00
300600
300600
300600
600C00
600C00
600C00
C01800
C01800
ENDCHAR
STARTCHAR I
ENCODING 73
SWIDTH 250 0
DWIDTH 6 0
BBX 7 17 1 0
BITMAP
06
06
06
0C
0C
0C
18
18
18
30
30
30
60
60
60
C0
C0
ENDCHAR
STARTCHAR J
ENCODING 74
SWIDTH 500 0
DWIDTH 12 0
BBX 15 17 -1 0
BITMAP
0006
0006
0006
000C
000C
000C
0018
0018
0018
0030
0030
0030
6060
6060
30C0
7F80
1E00
ENDCHAR
STARTCHAR K
ENCODING 75
SWIDTH 666 0
DWIDTH 16 0
BBX 19 17 1 0
BITMAP
0601C0
060380
060700
0C1C00
0C3800
0C7000
19C000
1BE000
1FE000
3CE000
387000
303000
607000
603800
601800
C03800
C01C00
ENDCHAR
STARTCHAR L
ENCODING 76
SWIDTH 541 0
DWIDTH 13 0
BBX 16 17 1 0
BITMAP
0600
0600
0600
0C00
0C00
0C00
1800
1800
1800
3000
3000
3000
6000
6000
6000
FFE0
FFE0
ENDCHAR
STARTCHAR M
ENCODING 77
SWIDTH 833 0
DWIDTH 20 0
BBX 21 17 1 0
BITMAP
060018
060018
070038
0E0070
0F00F0
0F00F0
1F03E0
1B0360
1B8760
330CC0
339CC0
3198C0
63F180
61E180
61E180
C18300
C18300
ENDCHAR
STARTCHAR N
ENCODING 78
SWIDTH 750 0
DWIDTH 18 0
BBX 19 17 1 0
BITMAP
060060
070060
078060
0F80C0
0D80C0
0DC0C0
19C180
18E180
186180
30E300
307300
303B00
603600
603E00
601E00
C01C00
C00C00
ENDCHAR
STARTCHAR O
ENCODING 79
SWIDTH 791 0
DWIDTH 19 0
BBX 22 17 0 0
BITMAP
003F80
00FFE0
01E0F0
070070
060030
0E0038
180030
180030
180030
300060
300060
3800E0
300180
380380
1E0F00
1FFC00
07F000
ENDCHAR
STARTCHAR P
ENCODING 80
SWIDTH 666 0
DWIDTH 16 0
BBX 19 17 1 0
BITMAP
07FF00
07FFC0
0600C0
0C00C0
0C00C0
0C00C0
180180
180300
1FFF00
3FF800
300000
300000
600000
600000
600000
C00000
C00000
ENDCHAR
STARTCHAR Q
ENCODING 81
SWIDTH 791 0
DWIDTH 19 0
BBX 23 19 0 -2
BITMAP
001FC0
007FF0
01E0F0
038038
030018
0E0038
0C0018
0C0018
180030
180030
180030
3808E0
181CC0
1C0FC0
1E0F00
0FFF00
03FB80
000380
000100
ENDCHAR
STARTCHAR R
ENCODING 82
SWIDTH 708 0
DWIDTH 17 0
BBX 20 17 1 0
BITMAP
07FF00
07FFC0
0600C0
0C00C0
0C00C0
0C00C0
180180
180300
1FFF00
3FFC00
300E00
300600
600600
600600
600600
C00E00
C00600
ENDCHAR
STARTCHAR S
ENCODING 83
SWIDTH 666 0
DWIDTH 16 0
BBX 19 17 0 0
BITMAP
007E00
01FF80
0181C0
060180
060000
060000
060000
07FC00
01FF00
000600
000300
000300
600600
700600
3C0C00
3FF800
0FE000
ENDCHAR
STARTCHAR T
ENCODING 84
SWIDTH 666 0
DWIDTH 16 0
BBX 21 17 -1 0
BITMAP
07FFF8
07FFF8
000C00
001800
001800
001800
003000
003000
003000
006000
006000
006000
00C000
00C000
00C000
018000
018000
ENDCHAR
STARTCHAR U
ENCODING 85
SWIDTH 708 0
DWIDTH 17 0
BBX 18 17 1 0
BITMAP
0600C0
0600C0
0600C0
0C0180
0C0180
0C0180
180300
180300
180300
300600
300600
300600
600C00
301800
383800
3FE000
0F8000
ENDCHAR
STARTCHAR V
ENCODING 86
SWIDTH 625 0
DWIDTH 15 0
BBX 20 17 -1 0
BITMAP
070070
070070
030060
0701C0
030180
030180
070700
030600
038E00
031800
031800
03B800
036000
036000
03E000
038000
038000
ENDCHAR
STARTCHAR W
ENCODING 87
SWIDTH 916 0
DWIDTH 22 0
BBX 27 17 -1 0
BITMAP
06018060
06018060
070180E0
06078180
06078180
070FC380
06198600
06198600
0739CE00
06619800
06619800
07E1F800
0781E000
0781E000
0300C000
06018000
06018000
ENDCHAR
STARTCHAR X
ENCODING 88
SWIDTH 708 0
DWIDTH 17 0
BBX 22 17 -1 0
BITMAP
06000C
07001C
038038
0380E0
01C1C0
00E380
00EE00
007C00
003800
00F800
01DC00
038E00
0E0E00
1C0700
380380
E00380
C00180
ENDCHAR
STARTCHAR Y
ENCODING 89
SWIDTH 666 0
DWIDTH 16 0
BBX 21 17 -1 0
BITMAP
060018
070038
038070
0381C0
01C380
00E700
00FC00
007800
003000
006000
006000
006000
00C000
00C000
00C000
018000
018000
ENDCHAR
STARTCHAR Z
ENCODING 90
SWIDTH 583 0
DWIDTH 14 0
BBX 19 17 -1 0
BITMAP
03FFC0
03FFC0
000380
000600
000E00
001C00
003000
007000
00E000
038000
030000
070000
1C0000
180000
380000
FFFC00
FFFC00
ENDCHAR
STARTCHAR bracketleft
ENCODING 91
SWIDTH 291 0
DWIDTH 7 0
BBX 11 22 1 -5
BITMAP
01E0
01E0
0300
0300
0300
0600
0600
0600
0C00
0C00
0C00
1800
1800
1800
3000
3000
3000
6000
6000
6000
F000
F000
ENDCHAR
STARTCHAR backslash
ENCODING 92
SWIDTH 291 0
DWIDTH 7 0
BBX 12 17 -1 0
BITMAP
0600
0600
0300
0600
0600
0300
0600
0600
0300
0600
0600
0300
0600
0600
0300
0600
0600
ENDCHAR
STARTCHAR bracketright
ENCODING 93
SWIDTH 291 0
DWIDTH 7 0
BBX 11 22 0 -5
BITMAP
01E0
01E0
00C0
00C0
00C0
0180
0180
0180
0300
0300
0300
0600
0600
0600
0C00
0C00
0C00
1800
1800
1800
F000
F000
ENDCHAR
STARTCHAR asciicircum
ENCODING 94
SWIDTH 458 0
DWIDTH 11 0
BBX 10 4 0 13
BITMAP
0E00
1F00
7700
C180
ENDCHAR
STARTCHAR underscore
ENCODING 95
SWIDTH 541 0
DWIDTH 13 0
BBX 13 2 -1 -3
BITMAP
FFF8
FFF8
ENDCHAR
STARTCHAR quoteleft
ENCODING 96
SWIDTH 333 0
DWIDTH 8 0
BBX 7 4 0 13
BITMAP
70
38
18
04
ENDCHAR
STARTCHAR a
ENCODING 97
SWIDTH 541 0
DWIDTH 13 0
BBX 16 12 0 0
BITMAP
01E0
0FF0
0C30
0018
0070
07F0
1FB0
7060
6060
70E0
7FF0
3E70
ENDCHAR
STARTCHAR b
ENCODING 98
SWIDTH 583 0
DWIDTH 14 0
BBX 16 17 1 0
BITMAP
0600
0600
0600
0C00
0C00
0DF0
1FF8
1C38
181C
3018
3018
3018
6030
6070
70E0
FFC0
DF00
ENDCHAR
STARTCHAR c
ENCODING 99
SWIDTH 500 0
DWIDTH 12 0
BBX 15 12 0 0
BITMAP
00F0
07F8
0E1C
0C0C
3000
3000
3000
6000
3030
3870
3FC0
0F00
ENDCHAR
STARTCHAR d
ENCODING 100
SWIDTH 583 0
DWIDTH 14 0
BBX 16 17 0 0
BITMAP
0003
0003
0003
0006
0006
01F6
0FFC
0E1C
1C0C
3018
3018
3018
6030
7030
3870
7FE0
1F60
ENDCHAR
STARTCHAR e
ENCODING 101
SWIDTH 583 0
DWIDTH 14 0
BBX 16 12 0 0
BITMAP
00F0
07F8
0E1C
0C0C
300C
3FFC
3FFC
6000
3000
3838
3FE0
0F80
ENDCHAR
STARTCHAR f
ENCODING 102
SWIDTH 250 0
DWIDTH 6 0
BBX 11 17 -1 0
BITMAP
00E0
01E0
0180
0300
0300
0FC0
1F80
0600
0600
0C00
0C00
0C00
1800
1800
1800
3000
3000
ENDCHAR
STARTCHAR g
ENCODING 103
SWIDTH 583 0
DWIDTH 14 0
BBX 16 17 0 -5
BITMAP
00FB
03FF
0387
0E06
0C06
0C06
180C
180C
1C0C
1C38
1FF8
07D8
0030
0030
3060
7FC0
1F00
ENDCHAR
STARTCHAR h
ENCODING 104
SWIDTH 541 0
DWIDTH 13 0
BBX 14 17 1 0
BITMAP
0600
0600
0600
0C00
0C00
0DC0
1FE0
1C60
1830
3060
3060
3060
60C0
60C0
60C0
C180
C180
ENDCHAR
STARTCHAR i
ENCODING 105
SWIDTH 250 0
DWIDTH 6 0
BBX 7 17 1 0
BITMAP
06
06
00
00
00
0C
18
18
18
30
30
30
60
60
60
C0
C0
ENDCHAR
STARTCHAR j
ENCODING 106
SWIDTH 250 0
DWIDTH 6 0
BBX 11 22 -1 -5
BITMAP
0060
0060
0000
0000
0000
0180
0180
0180
0300
0300
0300
0600
0600
0600
0C00
0C00
0C00
1800
1800
1800
F000
E000
ENDCHAR
STARTCHAR k
ENCODING 107
SWIDTH 500 0
DWIDTH 12 0
BBX 15 17 1 0
BITMAP
0600
0600
0600
0C00
0C00
0C38
18E0
19C0
1B80
3E00
3F00
3B80
6300
6380
61C0
C180
C1C0
ENDCHAR
STARTCHAR l
ENCODING 108
SWIDTH 250 0
DWIDTH 6 0
BBX 7 17 1 0
BITMAP
06
06
06
0C
0C
0C
18
18
18
30
30
30
60
60
60
C0
C0
ENDCHAR
STARTCHAR m
ENCODING 109
SWIDTH 833 0
DWIDTH 20 0
BBX 20 12 1 0
BITMAP
0DE3C0
1FEFC0
1C78C0
183060
3060C0
3060C0
3060C0
60C180
60C180
60C180
C18300
C18300
ENDCHAR
STARTCHAR n
ENCODING 110
SWIDTH 541 0
DWIDTH 13 0
BBX 13 12 1 0
BITMAP
0DC0
1FE0
1C60
1830
3060
3060
3060
60C0
60C0
60C0
C180
C180
ENDCHAR
STARTCHAR o
ENCODING 111
SWIDTH 583 0
DWIDTH 14 0
BBX 16 12 0 0
BITMAP
01F8
0FFC
0E1C
1C0E
300C
300C
300C
6018
7038
3870
7FE0
1F80
ENDCHAR
STARTCHAR p
ENCODING 112
SWIDTH 583 0
DWIDTH 14 0
BBX 16 17 1 -5
BITMAP
06F8
07FE
070E
0C0E
0C06
0C06
180C
180C
181C
3870
3FF0
37C0
6000
6000
6000
C000
C000
ENDCHAR
STARTCHAR q
ENCODING 113
SWIDTH 583 0
DWIDTH 14 0
BBX 16 17 0 -5
BITMAP
00FB
03FF
0387
0E06
0C06
0C06
180C
180C
1C0C
1C38
1FF8
07D8
0030
0030
0030
0060
0060
ENDCHAR
STARTCHAR r
ENCODING 114
SWIDTH 333 0
DWIDTH 8 0
BBX 10 12 1 0
BITMAP
0CC0
1B80
1E00
1C00
3000
3000
3000
6000
6000
6000
C000
C000
ENDCHAR
STARTCHAR s
ENCODING 115
SWIDTH 500 0
DWIDTH 12 0
BBX 14 12 0 0
BITMAP
03E0
0FF0
1C30
1800
3C00
1FC0
07E0
01E0
0060
60E0
FF80
3F00
ENDCHAR
STARTCHAR t
ENCODING 116
SWIDTH 250 0
DWIDTH 6 0
BBX 11 15 -1 0
BITMAP
0180
0300
0300
0FC0
1F80
0600
0600
0C00
0C00
0C00
1800
1800
1800
3C00
1C00
ENDCHAR
STARTCHAR u
ENCODING 117
SWIDTH 541 0
DWIDTH 13 0
BBX 13 12 1 0
BITMAP
0C18
1830
1830
1830
3060
3060
3060
60C0
60C0
31C0
7F80
1D80
ENDCHAR
STARTCHAR v
ENCODING 118
SWIDTH 458 0
DWIDTH 11 0
BBX 15 12 -1 0
BITMAP
0C06
180C
1C1C
0C18
1C70
0C60
0C60
1DC0
0D80
0F80
0E00
0E00
ENDCHAR
STARTCHAR w
ENCODING 119
SWIDTH 750 0
DWIDTH 18 0
BBX 22 12 -1 0
BITMAP
0C0C0C
181818
1C3C38
0C3C30
1CFCE0
0CCCC0
0CCCC0
1F9F80
0F0F00
0F0F00
0C0C00
0C0C00
ENDCHAR
STARTCHAR x
ENCODING 120
SWIDTH 458 0
DWIDTH 11 0
BBX 15 12 -1 0
BITMAP
0C06
1C1C
0E38
0770
07C0
0380
0380
0F80
1DC0
38E0
E0E0
C060
ENDCHAR
STARTCHAR y
ENCODING 121
SWIDTH 458 0
DWIDTH 11 0
BBX 16 17 -1 -5
BITMAP
0603
0603
0707
060C
071C
0318
0630
0770
0360
07C0
0380
0380
0600
0E00
0C00
F800
F000
ENDCHAR
STARTCHAR z
ENCODING 122
SWIDTH 458 0
DWIDTH 11 0
BBX 15 12 -1 0
BITMAP
07FE
0FFC
0038
0070
01C0
0380
0380
0E00
1C00
3800
FFE0
FFE0
ENDCHAR
STARTCHAR braceleft
ENCODING 123
SWIDTH 375 0
DWIDTH 9 0
BBX 13 22 0 -5
BITMAP
0018
0038
00E0
00C0
00C0
0180
0180
0180
0300
0600
0C00
1800
0C00
0600
0C00
0C00
0C00
1800
1800
1C00
1C00
0C00
ENDCHAR
STARTCHAR bar
ENCODING 124
SWIDTH 250 0
DWIDTH 6 0
BBX 9 23 1 -6
BITMAP
0180
0180
0180
0300
0300
0300
0600
0600
0600
0C00
0000
0000
0000
1800
1800
3000
3000
3000
6000
6000
6000
C000
C000
ENDCHAR
STARTCHAR braceright
ENCODING 125
SWIDTH 375 0
DWIDTH 9 0
BBX 13 22 0 -5
BITMAP
0180
01C0
0180
00C0
00C0
0180
0180
0180
0300
0180
00C0
0180
0300
0600
0C00
0C00
0C00
1800
1800
3000
E000
C000
ENDCHAR
STARTCHAR asciitilde
ENCODING 126
SWIDTH 583 0
DWIDTH 14 0
BBX 12 4 0 13
BITMAP
3C30
7F30
CFE0
C3C0
ENDCHAR
STARTCHAR nbsp
ENCODING 154
SWIDTH 250 0
DWIDTH 6 0
BBX 0 0 -1 0
BITMAP
ENDCHAR
STARTCHAR degree
ENCODING 156
SWIDTH 333 0
DWIDTH 8 0
BBX 8 6 0 11
BITMAP
0C
3C
66
66
78
30
ENDCHAR
STARTCHAR twosuperior
ENCODING 157
SWIDTH 291 0
DWIDTH 7 0
BBX 8 8 0 9
BITMAP
1E
33
03
0C
18
30
C0
FC
ENDCHAR
STARTCHAR cyr-yo
ENCODING 163
SWIDTH 583 0
DWIDTH 14 0
BBX 17 15 0 0
BITMAP
018600
030C00
000000
00F000
07F800
0E1C00
0C0C00
300C00
3FFC00
3FFC00
600000
300000
383800
3FE000
0F8000
ENDCHAR
STARTCHAR cyr-Yo
ENCODING 179
SWIDTH 666 0
DWIDTH 16 0
BBX 19 20 1 0
BITMAP
00C180
00C180
000000
07FFC0
07FFC0
060000
0C0000
0C0000
0C0000
180000
1FFC00
1FFC00
300000
300000
300000
600000
600000
600000
FFF800
FFF800
ENDCHAR
STARTCHAR copyright
ENCODING 191
SWIDTH 833 0
DWIDTH 20 0
BBX 21 17 1 0
BITMAP
003F00
00E1C0
018060
063C60
046620
0CC330
118620
118020
118020
230040
230C40
330CC0
233100
31E300
180600
1C3800
07E000
ENDCHAR
STARTCHAR cyr-yu
ENCODING 192
SWIDTH 708 0
DWIDTH 17 0
BBX 19 12 0 0
BITMAP
0C3F00
19FF80
19C380
1B81C0
360180
3E0180
3E0180
6C0300
6E0700
670E00
CFFC00
C3F000
ENDCHAR
STARTCHAR cyr-a
ENCODING 193
SWIDTH 541 0
DWIDTH 13 0
BBX 16 12 0 0
BITMAP
01E0
0FF0
0C30
0018
0070
07F0
1FB0
7060
6060
70E0
7FF0
3E70
ENDCHAR
STARTCHAR cyr-be
ENCODING 194
SWIDTH 583 0
DWIDTH 14 0
BBX 17 16 0 0
BITMAP
000700
00FE00
07F800
0E0000
0DF800
1FFC00
1C0C00
1C0E00
300C00
300C00
300C00
601800
603800
303000
7FE000
1F8000
ENDCHAR
STARTCHAR cyr-tse
ENCODING 195
SWIDTH 541 0
DWIDTH 13 0
BBX 14 14 1 -2
BITMAP
0C18
0C18
0C18
1830
1830
1830
3060
3060
3060
60C0
7FE0
7FE0
00C0
00C0
ENDCHAR
STARTCHAR cyr-de
ENCODING 196
SWIDTH 625 0
DWIDTH 15 0
BBX 17 14 0 -2
BITMAP
01FE00
01FE00
018600
030C00
030C00
030C00
061800
061800
061800
183000
7FFC00
7FFC00
C01800
C01800
ENDCHAR
STARTCHAR cyr-ie
ENCODING 197
SWIDTH 583 0
DWIDTH 14 0
BBX 16 12 0 0
BITMAP
00F0
07F8
0E1C
0C0C
300C
3FFC
3FFC
6000
3000
3838
3FE0
0F80
ENDCHAR
STARTCHAR cyr-ef
ENCODING 198
SWIDTH 666 0
DWIDTH 16 0
BBX 20 18 0 -5
BITMAP
000C00
00FF00
03FFC0
0399C0
0E31C0
0C30C0
0C30C0
186180
186180
1C6380
1CCE00
1FFE00
07F800
018000
018000
018000
030000
030000
ENDCHAR
STARTCHAR cyr-ghe
ENCODING 199
SWIDTH 500 0
DWIDTH 12 0
BBX 13 12 1 0
BITMAP
0FF8
1FF0
1800
1800
3000
3000
3000
6000
6000
6000
C000
C000
ENDCHAR
STARTCHAR cyr-kha
ENCODING 200
SWIDTH 458 0
DWIDTH 11 0
BBX 15 12 -1 0
BITMAP
0C06
1C1C
0E38
0770
07C0
0380
0380
0F80
1DC0
38E0
E0E0
C060
ENDCHAR
STARTCHAR cyr-i
ENCODING 201
SWIDTH 500 0
DWIDTH 12 0
BBX 14 12 0 0
BITMAP
0C0C
1818
1838
1878
31F0
33B0
3730
7C60
7860
7060
C0C0
C0C0
ENDCHAR
STARTCHAR cyr-i-short
ENCODING 202
SWIDTH 500 0
DWIDTH 12 0
BBX 15 15 0 0
BITMAP
0198
03F0
01E0
0C0C
1818
1838
1878
31F0
33B0
3730
7C60
7860
7060
C0C0
C0C0
ENDCHAR
STARTCHAR cyr-ka
ENCODING 203
SWIDTH 500 0
DWIDTH 12 0
BBX 14 12 1 0
BITMAP
0C38
18E0
19C0
1B80
3E00
3F00
3B80
6300
6380
61C0
C180
C1C0
ENDCHAR
STARTCHAR cyr-el
ENCODING 204
SWIDTH 541 0
DWIDTH 13 0
BBX 14 12 0 0
BITMAP
03FC
07F8
0618
0618
0C30
0C30
0C30
1860
1860
1860
70C0
E0C0
ENDCHAR
STARTCHAR cyr-em
ENCODING 205
SWIDTH 666 0
DWIDTH 16 0
BBX 18 12 0 0
BITMAP
0C00C0
1C0380
1E0780
1F0F80
373B00
33F300
31E300
618600
600600
600600
C00C00
C00C00
ENDCHAR
STARTCHAR cyr-en
ENCODING 206
SWIDTH 541 0
DWIDTH 13 0
BBX 13 12 1 0
BITMAP
0C18
1830
1830
1830
3060
3FE0
3FE0
60C0
60C0
60C0
C180
C180
ENDCHAR
STARTCHAR cyr-o
ENCODING 207
SWIDTH 583 0
DWIDTH 14 0
BBX 16 12 0 0
BITMAP
01F8
0FFC
0E1C
1C0E
300C
300C
300C
6018
7038
3870
7FE0
1F80
ENDCHAR
STARTCHAR cyr-pe
ENCODING 208
SWIDTH 541 0
DWIDTH 13 0
BBX 13 12 1 0
BITMAP
0FF8
1FF0
1830
1830
3060
3060
3060
60C0
60C0
60C0
C180
C180
ENDCHAR
STARTCHAR cyr-ya
ENCODING 209
SWIDTH 541 0
DWIDTH 13 0
BBX 15 12 0 0
BITMAP
03FE
0FFC
1C0C
180C
3018
3818
1FF8
1FF0
0E30
1C30
7060
E060
ENDCHAR
STARTCHAR cyr-er
ENCODING 210
SWIDTH 583 0
DWIDTH 14 0
BBX 16 17 1 -5
BITMAP
06F8
07FE
070E
0C0E
0C06
0C06
180C
180C
181C
3870
3FF0
37C0
6000
6000
6000
C000
C000
ENDCHAR
STARTCHAR cyr-es
ENCODING 211
SWIDTH 500 0
DWIDTH 12 0
BBX 15 12 0 0
BITMAP
00F0
07F8
0E1C
0C0C
3000
3000
3000
6000
3030
3870
3FC0
0F00
ENDCHAR
STARTCHAR cyr-te
ENCODING 212
SWIDTH 500 0
DWIDTH 12 0
BBX 16 12 -1 0
BITMAP
0FFF
1FFE
00C0
00C0
0180
0180
0180
0300
0300
0300
0600
0600
ENDCHAR
STARTCHAR cyr-u
ENCODING 213
SWIDTH 458 0
DWIDTH 11 0
BBX 16 17 -1 -5
BITMAP
0603
0603
0707
060C
071C
0318
0630
0770
0360
07C0
0380
0380
0600
0E00
0C00
F800
F000
ENDCHAR
STARTCHAR cyr-zhe
ENCODING 214
SWIDTH 833 0
DWIDTH 20 0
BBX 22 12 0 0
BITMAP
0C0C0C
1C1838
0E1870
0718E0
073380
03FF00
01FE00
076E00
0E6700
1C6380
70C380
E0C1C0
ENDCHAR
STARTCHAR cyr-ve
ENCODING 215
SWIDTH 541 0
DWIDTH 13 0
BBX 14 12 1 0
BITMAP
0FF8
1FF8
1818
1818
3030
3FE0
3FF0
6060
6060
6060
FFC0
FF80
ENDCHAR
STARTCHAR cyr-ierik
ENCODING 216
SWIDTH 541 0
DWIDTH 13 0
BBX 15 12 0 0
BITMAP
0C00
1800
1800
1800
3FE0
3FF0
3038
6030
6030
6070
FFC0
FF80
ENDCHAR
STARTCHAR cyr-iery
ENCODING 217
SWIDTH 666 0
DWIDTH 16 0
BBX 18 12 0 0
BITMAP
0C00C0
180180
180180
180180
3FE300
3FF300
303B00
603600
603600
607600
FFCC00
FF8C00
ENDCHAR
STARTCHAR cyr-z
ENCODING 218
SWIDTH 500 0
DWIDTH 12 0
BBX 14 12 0 0
BITMAP
07F8
1FF8
1818
0018
0030
03E0
03F0
0060
0060
6060
FFC0
7F80
ENDCHAR
STARTCHAR cyr-sha
ENCODING 219
SWIDTH 750 0
DWIDTH 18 0
BBX 20 12 0 0
BITMAP
0C1830
183060
183060
183060
3060C0
3060C0
3060C0
60C180
60C180
60C180
FFFF00
FFFF00
ENDCHAR
STARTCHAR cyr-e-rev
ENCODING 220
SWIDTH 541 0
DWIDTH 13 0
BBX 15 12 0 0
BITMAP
03F0
0FF8
1C38
001C
0018
03F8
03F8
0030
0070
70E0
7FC0
3F00
ENDCHAR
STARTCHAR cyr-shcha
ENCODING 221
SWIDTH 791 0
DWIDTH 19 0
BBX 21 14 0 -2
BITMAP
0C1830
0C1830
0C1830
183060
183060
183060
3060C0
3060C0
3060C0
60C180
7FFFC0
7FFFC0
000180
000180
ENDCHAR
STARTCHAR cyr-che
ENCODING 222
SWIDTH 541 0
DWIDTH 13 0
BBX 13 12 1 0
BITMAP
0C18
1830
1830
1830
3060
3FE0
1FE0
00C0
00C0
00C0
0180
0180
ENDCHAR
STARTCHAR cyr-ier
ENCODING 223
SWIDTH 625 0
DWIDTH 15 0
BBX 17 12 0 0
BITMAP
0F0000
1E0000
060000
060000
0FF800
0FFC00
0C0E00
180C00
180C00
181C00
3FF000
3FE000
ENDCHAR
STARTCHAR cyr-Yu
ENCODING 224
SWIDTH 916 0
DWIDTH 22 0
BBX 24 17 1 0
BITMAP
0607E0
061FF8
063C3C
0CE01C
0CC00C
0DC00E
1B000C
1F000C
1F000C
360018
360018
370038
660060
6700E0
63C3C0
C3FF00
C0FC00
ENDCHAR
STARTCHAR cyr-A
ENCODING 225
SWIDTH 625 0
DWIDTH 15 0
BBX 20 17 -1 0
BITMAP
001C00
001C00
003E00
006C00
006C00
00EE00
018C00
018C00
038E00
060C00
0E0E00
0FFE00
1FFC00
380E00
300600
E00E00
E00E00
ENDCHAR
STARTCHAR cyr-Be
ENCODING 226
SWIDTH 666 0
DWIDTH 16 0
BBX 18 17 1 0
BITMAP
07FF80
07FF80
060000
0C0000
0C0000
0C0000
180000
1FFC00
1FFE00
300C00
300600
300600
600C00
600C00
601800
FFF000
FFC000
ENDCHAR
STARTCHAR cyr-Tse
ENCODING 227
SWIDTH 708 0
DWIDTH 17 0
BBX 20 19 1 -2
BITMAP
030060
030060
0600C0
0600C0
0600C0
0C0180
0C0180
0C0180
180300
180300
180300
300600
300600
300600
600C00
7FFE00
7FFE00
000C00
000C00
ENDCHAR
STARTCHAR cyr-De
ENCODING 228
SWIDTH 750 0
DWIDTH 18 0
BBX 22 19 0 -2
BITMAP
003FF0
003FF0
006060
006060
006060
00C0C0
00C0C0
00C0C0
018180
018180
018180
030300
030300
030300
0C0600
7FFF80
7FFF80
C00300
C00300
ENDCHAR
STARTCHAR cyr-Ie
ENCODING 229
SWIDTH 666 0
DWIDTH 16 0
BBX 18 17 1 0
BITMAP
07FFC0
07FFC0
060000
0C0000
0C0000
0C0000
180000
1FFC00
1FFC00
300000
300000
300000
600000
600000
600000
FFF800
FFF800
ENDCHAR
STARTCHAR cyr-Ef
ENCODING 230
SWIDTH 833 0
DWIDTH 20 0
BBX 23 17 0 0
BITMAP
003FC0
00FFF0
01E678
070C38
060C18
0E0C1C
181818
181818
181818
383070
183060
1C30E0
1E6780
0FFF00
03FC00
00C000
00C000
ENDCHAR
STARTCHAR cyr-Ghe
ENCODING 231
SWIDTH 666 0
DWIDTH 16 0
BBX 18 17 1 0
BITMAP
07FFC0
07FFC0
060000
0C0000
0C0000
0C0000
180000
180000
180000
300000
300000
300000
600000
600000
600000
C00000
C00000
ENDCHAR
STARTCHAR cyr-Kha
ENCODING 232
SWIDTH 708 0
DWIDTH 17 0
BBX 22 17 -1 0
BITMAP
06000C
07001C
038038
0380E0
01C1C0
00E380
00EE00
007C00
003800
00F800
01DC00
038E00
0E0E00
1C0700
380380
E00380
C00180
ENDCHAR
STARTCHAR cyr-I
ENCODING 233
SWIDTH 750 0
DWIDTH 18 0
BBX 19 17 1 0
BITMAP
060060
060060
060060
0C01C0
0C03C0
0C07C0
181D80
183980
187180
31C300
338300
370300
7C0600
780600
700600
C00C00
C00C00
ENDCHAR
STARTCHAR cyr-I-short
ENCODING 234
SWIDTH 750 0
DWIDTH 18 0
BBX 20 20 1 0
BITMAP
007380
003F00
001E00
060060
060060
060060
0C01C0
0C03C0
0C07C0
181D80
183980
187180
31C300
338300
370300
7C0600
780600
700600
C00C00
C00C00
ENDCHAR
STARTCHAR cyr-Ka
ENCODING 235
SWIDTH 666 0
DWIDTH 16 0
BBX 19 17 1 0
BITMAP
0601C0
060380
060700
0C1C00
0C3800
0C7000
19C000
1BE000
1FE000
3CE000
387000
303000
607000
603800
601800
C03800
C01C00
ENDCHAR
STARTCHAR cyr-El
ENCODING 236
SWIDTH 625 0
DWIDTH 15 0
BBX 17 17 0 0
BITMAP
01FF80
01FF80
018180
030300
030300
030300
060600
060600
060600
0C0C00
0C0C00
0C0C00
181800
181800
181800
F03000
E03000
ENDCHAR
STARTCHAR cyr-Em
ENCODING 237
SWIDTH 833 0
DWIDTH 20 0
BBX 21 17 1 0
BITMAP
060018
060018
070038
0E0070
0F00F0
0F00F0
1F03E0
1B0360
1B8760
330CC0
339CC0
3198C0
63F180
61E180
61E180
C18300
C18300
ENDCHAR
STARTCHAR cyr-En
ENCODING 238
SWIDTH 708 0
DWIDTH 17 0
BBX 18 17 1 0
BITMAP
0600C0
0600C0
0600C0
0C0180
0C0180
0C0180
180300
1FFF00
1FFF00
300600
300600
300600
600C00
600C00
600C00
C01800
C01800
ENDCHAR
STARTCHAR cyr-O
ENCODING 239
SWIDTH 791 0
DWIDTH 19 0
BBX 22 17 0 0
BITMAP
003F80
00FFE0
01E0F0
070070
060030
0E0038
180030
180030
180030
300060
300060
3800E0
300180
380380
1E0F00
1FFC00
07F000
ENDCHAR
STARTCHAR cyr-Pe
ENCODING 240
SWIDTH 708 0
DWIDTH 17 0
BBX 18 17 1 0
BITMAP
07FFC0
07FFC0
0600C0
0C0180
0C0180
0C0180
180300
180300
180300
300600
300600
300600
600C00
600C00
600C00
C01800
C01800
ENDCHAR
STARTCHAR cyr-Ya
ENCODING 241
SWIDTH 708 0
DWIDTH 17 0
BBX 19 17 0 0
BITMAP
01FFE0
03FFE0
070060
0C00C0
0C00C0
0C00C0
180180
180180
1C0180
1FFF00
07FF00
01C300
070600
0E0600
1C0600
700C00
E00C00
ENDCHAR
STARTCHAR cyr-Er
ENCODING 242
SWIDTH 666 0
DWIDTH 16 0
BBX 19 17 1 0
BITMAP
07FF00
07FFC0
0600C0
0C00C0
0C00C0
0C00C0
180180
180300
1FFF00
3FF800
300000
300000
600000
600000
600000
C00000
C00000
ENDCHAR
STARTCHAR cyr-Es
ENCODING 243
SWIDTH 708 0
DWIDTH 17 0
BBX 21 17 0 0
BITMAP
003F80
00FFE0
01E0F0
070060
060030
0E0030
180000
180000
180000
300000
300000
3800C0
300180
380300
1E0F00
1FFC00
07F000
ENDCHAR
STARTCHAR cyr-Te
ENCODING 244
SWIDTH 666 0
DWIDTH 16 0
BBX 21 17 -1 0
BITMAP
07FFF8
07FFF8
000C00
001800
001800
001800
003000
003000
003000
006000
006000
006000
00C000
00C000
00C000
018000
018000
ENDCHAR
STARTCHAR cyr-U
ENCODING 245
SWIDTH 583 0
DWIDTH 14 0
BBX 17 17 0 0
BITMAP
060180
060180
070380
060600
060600
070E00
061800
073800
033000
066000
03C000
03C000
078000
070000
070000
7C0000
780000
ENDCHAR
STARTCHAR cyr-Zhe
ENCODING 246
SWIDTH 1000 0
DWIDTH 24 0
BBX 29 17 -1 0
BITMAP
0300C030
0380C070
01C0C0E0
01C18380
00E18700
00718E00
00733800
003B7000
003FF000
007FE000
00E67000
01C63800
070C3800
0E0C1C00
1C0C0E00
70180E00
E0180700
ENDCHAR
STARTCHAR cyr-Ve
ENCODING 247
SWIDTH 666 0
DWIDTH 16 0
BBX 18 17 1 0
BITMAP
07FC00
07FF00
060300
0C0300
0C0300
0C0300
180E00
1FFC00
1FFE00
300C00
300600
300600
600C00
600C00
601800
FFF000
FFC000
ENDCHAR
STARTCHAR cyr-Ierik
ENCODING 248
SWIDTH 750 0
DWIDTH 18 0
BBX 20 17 1 0
BITMAP
060000
060000
060000
0C0000
0C0000
0C0000
180000
1FFF00
1FFF80
300380
300180
300180
600300
600300
600700
FFFC00
FFF800
ENDCHAR
STARTCHAR cyr-Iery
ENCODING 249
SWIDTH 916 0
DWIDTH 22 0
BBX 23 17 1 0
BITMAP
060006
060006
060006
0C000C
0C000C
0C000C
180018
1FFF18
1FFF98
3003B0
3001B0
3001B0
600360
600360
600760
FFFCC0
FFF8C0
ENDCHAR
STARTCHAR cyr-Ze
ENCODING 250
SWIDTH 666 0
DWIDTH 16 0
BBX 19 17 0 0
BITMAP
007E00
01FF80
0381C0
060180
000180
000180
000700
007E00
007E00
000E00
000700
000300
000600
600600
700E00
7FF800
1FF000
ENDCHAR
STARTCHAR cyr-Sha
ENCODING 251
SWIDTH 916 0
DWIDTH 22 0
BBX 25 17 0 0
BITMAP
06030180
06030180
06030180
0C060300
0C060300
0C060300
180C0600
180C0600
180C0600
30180C00
30180C00
30180C00
60301800
60301800
60301800
FFFFF000
FFFFF000
ENDCHAR
STARTCHAR cyr-E-rev
ENCODING 252
SWIDTH 708 0
DWIDTH 17 0
BBX 20 17 0 0
BITMAP
00FE00
03FF80
0783C0
0C01C0
0000C0
0000E0
0000C0
007FC0
007FC0
000180
000180
000380
000600
600E00
783C00
7FF000
1FC000
ENDCHAR
STARTCHAR cyr-Shcha
ENCODING 253
SWIDTH 958 0
DWIDTH 23 0
BBX 27 19 0 -2
BITMAP
030180C0
030180C0
06030180
06030180
06030180
0C060300
0C060300
0C060300
180C0600
180C0600
180C0600
30180C00
30180C00
30180C00
60301800
7FFFFC00
7FFFFC00
00001800
00001800
ENDCHAR
STARTCHAR cyr-Che
ENCODING 254
SWIDTH 708 0
DWIDTH 17 0
BBX 18 17 1 0
BITMAP
0600C0
0600C0
0600C0
0C0180
0C0180
0C0180
180300
1FFF00
0FFF00
000600
000600
000600
000C00
000C00
000C00
001800
001800
ENDCHAR
STARTCHAR cyr-Ier
ENCODING 255
SWIDTH 833 0
DWIDTH 20 0
BBX 23 17 0 0
BITMAP
07C000
07C000
00C000
018000
018000
018000
030000
03FFE0
03FFF0
060070
060030
060030
0C0060
0C0060
0C00E0
1FFF80
1FFF00
ENDCHAR
ENDFONT
